<mxfile host="app.diagrams.net" agent="Mozilla/5.0 (Windows NT 10.0; Win64; x64) AppleWebKit/537.36 (KHTML, like Gecko) Chrome/130.0.0.0 Safari/537.36" version="24.8.3">
  <diagram name="Page-1" id="44L028sz6iEWmxJtoGjJ">
    <mxGraphModel dx="836" dy="483" grid="1" gridSize="10" guides="1" tooltips="1" connect="1" arrows="1" fold="1" page="1" pageScale="1" pageWidth="827" pageHeight="1169" math="0" shadow="0">
      <root>
        <mxCell id="0" />
        <mxCell id="1" parent="0" />
        <mxCell id="I3VdeCenZtvMLont0Z58-9" value="&lt;span style=&quot;font-weight: 400;&quot;&gt;BankAccount&lt;/span&gt;" style="swimlane;fontStyle=1;align=center;verticalAlign=top;childLayout=stackLayout;horizontal=1;startSize=26;horizontalStack=0;resizeParent=1;resizeParentMax=0;resizeLast=0;collapsible=1;marginBottom=0;whiteSpace=wrap;html=1;" parent="1" vertex="1">
          <mxGeometry x="220" y="90" width="490" height="380" as="geometry" />
        </mxCell>
        <mxCell id="I3VdeCenZtvMLont0Z58-10" value="&#xa;- accountHolder: string&lt;div style=&quot;forced-color-adjust: none;&quot;&gt;&lt;br style=&quot;forced-color-adjust: none;&quot;&gt;&lt;div style=&quot;forced-color-adjust: none;&quot;&gt;- currentBalance : double&lt;/div&gt;&lt;div style=&quot;forced-color-adjust: none;&quot;&gt;&lt;br style=&quot;forced-color-adjust: none;&quot;&gt;&lt;/div&gt;&lt;div style=&quot;forced-color-adjust: none;&quot;&gt;-&amp;nbsp;monthlyInterestRate: double&lt;/div&gt;&lt;div style=&quot;forced-color-adjust: none;&quot;&gt;&lt;br style=&quot;forced-color-adjust: none;&quot;&gt;&lt;/div&gt;&lt;div style=&quot;forced-color-adjust: none;&quot;&gt;-&amp;nbsp;transactionHistory:&amp;nbsp;List&amp;lt;Transaction&amp;gt;&lt;/div&gt;&lt;/div&gt;&lt;div style=&quot;forced-color-adjust: none;&quot;&gt;&lt;br style=&quot;forced-color-adjust: none;&quot;&gt;&lt;/div&gt;&lt;div style=&quot;forced-color-adjust: none;&quot;&gt;-&amp;nbsp;withdrawalCount: int&lt;/div&gt;&lt;div style=&quot;forced-color-adjust: none;&quot;&gt;&lt;br style=&quot;forced-color-adjust: none; color: rgb(0, 0, 0); font-family: Helvetica; font-size: 12px; font-style: normal; font-variant-ligatures: normal; font-variant-caps: normal; font-weight: 400; letter-spacing: normal; orphans: 2; text-align: left; text-indent: 0px; text-transform: none; widows: 2; word-spacing: 0px; -webkit-text-stroke-width: 0px; white-space: normal; background-color: rgb(251, 251, 251); text-decoration-thickness: initial; text-decoration-style: initial; text-decoration-color: initial;&quot;&gt;&#xa;&#xa;&lt;/div&gt;" style="text;strokeColor=none;fillColor=none;align=left;verticalAlign=top;spacingLeft=4;spacingRight=4;overflow=hidden;rotatable=0;points=[[0,0.5],[1,0.5]];portConstraint=eastwest;whiteSpace=wrap;html=1;" parent="I3VdeCenZtvMLont0Z58-9" vertex="1">
          <mxGeometry y="26" width="490" height="168" as="geometry" />
        </mxCell>
        <mxCell id="I3VdeCenZtvMLont0Z58-11" value="" style="line;strokeWidth=1;fillColor=none;align=left;verticalAlign=middle;spacingTop=-1;spacingLeft=3;spacingRight=3;rotatable=0;labelPosition=right;points=[];portConstraint=eastwest;strokeColor=inherit;" parent="I3VdeCenZtvMLont0Z58-9" vertex="1">
          <mxGeometry y="194" width="490" height="8" as="geometry" />
        </mxCell>
        <mxCell id="I3VdeCenZtvMLont0Z58-12" value="+&amp;nbsp;BankAccount(String accountHolder, double initialBalance, double monthlyInterestRate)&lt;div&gt;&lt;br&gt;&lt;/div&gt;&lt;div&gt;+ deposit: void&lt;/div&gt;&lt;div&gt;&lt;br&gt;&lt;/div&gt;&lt;div&gt;+ withdraw: void&lt;/div&gt;&lt;div&gt;&lt;br&gt;&lt;/div&gt;&lt;div&gt;+&amp;nbsp;applyMonthlyInterest: void&lt;/div&gt;&lt;div&gt;&lt;br&gt;&lt;/div&gt;&lt;div&gt;+&amp;nbsp;getBalance: double&lt;/div&gt;&lt;div&gt;&lt;br&gt;&lt;/div&gt;&lt;div&gt;+&amp;nbsp;printTransactionHistory: void&lt;/div&gt;" style="text;strokeColor=none;fillColor=none;align=left;verticalAlign=top;spacingLeft=4;spacingRight=4;overflow=hidden;rotatable=0;points=[[0,0.5],[1,0.5]];portConstraint=eastwest;whiteSpace=wrap;html=1;" parent="I3VdeCenZtvMLont0Z58-9" vertex="1">
          <mxGeometry y="202" width="490" height="178" as="geometry" />
        </mxCell>
        <mxCell id="I3VdeCenZtvMLont0Z58-15" value="1" style="endArrow=open;html=1;endSize=12;startArrow=diamondThin;startSize=14;startFill=0;edgeStyle=orthogonalEdgeStyle;align=left;verticalAlign=bottom;rounded=0;" parent="1" edge="1">
          <mxGeometry x="-0.7938" y="6" relative="1" as="geometry">
            <mxPoint x="464" y="470" as="sourcePoint" />
            <mxPoint x="464" y="620" as="targetPoint" />
            <Array as="points">
              <mxPoint x="464" y="530" />
              <mxPoint x="464" y="530" />
            </Array>
            <mxPoint as="offset" />
          </mxGeometry>
        </mxCell>
        <mxCell id="I3VdeCenZtvMLont0Z58-16" value="Transaction&lt;div&gt;&lt;br&gt;&lt;/div&gt;" style="swimlane;fontStyle=1;align=center;verticalAlign=top;childLayout=stackLayout;horizontal=1;startSize=26;horizontalStack=0;resizeParent=1;resizeParentMax=0;resizeLast=0;collapsible=1;marginBottom=0;whiteSpace=wrap;html=1;" parent="1" vertex="1">
          <mxGeometry x="220" y="620" width="490" height="170" as="geometry" />
        </mxCell>
        <mxCell id="I3VdeCenZtvMLont0Z58-17" value="- type: string&lt;div&gt;&lt;br&gt;&lt;/div&gt;&lt;div&gt;- amount: double&lt;/div&gt;&lt;div&gt;&lt;br&gt;&lt;/div&gt;&lt;div&gt;- date: date&lt;/div&gt;" style="text;strokeColor=none;fillColor=none;align=left;verticalAlign=top;spacingLeft=4;spacingRight=4;overflow=hidden;rotatable=0;points=[[0,0.5],[1,0.5]];portConstraint=eastwest;whiteSpace=wrap;html=1;" parent="I3VdeCenZtvMLont0Z58-16" vertex="1">
          <mxGeometry y="26" width="490" height="84" as="geometry" />
        </mxCell>
        <mxCell id="I3VdeCenZtvMLont0Z58-18" value="" style="line;strokeWidth=1;fillColor=none;align=left;verticalAlign=middle;spacingTop=-1;spacingLeft=3;spacingRight=3;rotatable=0;labelPosition=right;points=[];portConstraint=eastwest;strokeColor=inherit;" parent="I3VdeCenZtvMLont0Z58-16" vertex="1">
          <mxGeometry y="110" width="490" height="8" as="geometry" />
        </mxCell>
        <mxCell id="I3VdeCenZtvMLont0Z58-19" value="+&amp;nbsp;Transaction(String type, double amount)&lt;div&gt;&lt;br&gt;&lt;/div&gt;&lt;div&gt;+&amp;nbsp;toString: string&lt;/div&gt;" style="text;strokeColor=none;fillColor=none;align=left;verticalAlign=top;spacingLeft=4;spacingRight=4;overflow=hidden;rotatable=0;points=[[0,0.5],[1,0.5]];portConstraint=eastwest;whiteSpace=wrap;html=1;" parent="I3VdeCenZtvMLont0Z58-16" vertex="1">
          <mxGeometry y="118" width="490" height="52" as="geometry" />
        </mxCell>
      </root>
    </mxGraphModel>
  </diagram>
</mxfile>
